<?xml version="1.0" standalone="no"?>
<!DOCTYPE svg PUBLIC "-//W3C//DTD SVG 20010904//EN"
 "http://www.w3.org/TR/2001/REC-SVG-20010904/DTD/svg10.dtd">
<svg version="1.0" xmlns="http://www.w3.org/2000/svg"
 width="1053.000000pt" height="1040.000000pt" viewBox="0 0 1053.000000 1040.000000"
 preserveAspectRatio="xMidYMid meet">

<g transform="translate(0.000000,1040.000000) scale(0.100000,-0.100000)" fill="#ffffff" stroke="none">
<path d="M0 5200 l0 -5200 5265 0 5265 0 0 5200 0 5200 -5265 0 -5265 0 0
-5200z m1590 1784 c30 -43 60 -84 66 -93 8 -11 8 -134 2 -421 -4 -223 -7 -497
-6 -610 l3 -205 37 -20 c34 -18 42 -18 110 -7 76 13 233 65 378 126 175 73
307 38 469 -125 126 -127 187 -224 234 -374 62 -198 63 -394 3 -610 -100 -359
-198 -531 -370 -648 -83 -56 -257 -141 -346 -169 -102 -31 -289 -31 -475 1
-184 32 -428 96 -486 128 -65 35 -134 110 -167 181 -26 54 -27 66 -30 242 -3
180 -3 186 20 219 49 73 59 76 261 79 176 3 183 2 216 -20 59 -40 73 -68 98
-205 13 -70 26 -130 31 -133 41 -36 470 -180 534 -180 13 0 25 24 48 98 43
139 58 224 70 378 17 228 -11 394 -93 548 -80 151 -225 245 -338 221 -17 -4
-69 -36 -116 -72 l-85 -65 -272 -1 c-309 -1 -321 2 -363 79 -21 39 -21 45 -24
674 -2 349 -5 640 -7 646 -2 8 -25 6 -78 -8 -41 -10 -79 -16 -85 -13 -17 11
-101 187 -92 195 4 4 107 37 228 73 121 36 292 88 380 115 88 28 167 50 175
51 9 1 40 -33 70 -75z m2440 -329 c0 -173 3 -315 6 -315 3 0 24 13 47 29 98
67 168 94 253 99 72 4 88 1 135 -21 94 -43 153 -119 191 -242 32 -101 32 -300
1 -400 -74 -234 -253 -366 -454 -334 -73 12 -125 37 -180 86 l-39 35 -63 -29
c-34 -16 -99 -45 -145 -63 l-83 -34 -24 29 -24 30 45 82 44 81 0 545 0 545
-70 43 c-53 33 -70 49 -70 66 0 13 1 23 3 24 11 4 369 57 395 58 l32 1 0 -315z
m3190 0 c0 -173 3 -315 6 -315 3 0 25 14 50 31 24 16 75 45 112 62 60 29 77
32 157 32 106 0 140 -13 207 -81 83 -82 128 -217 128 -380 0 -277 -151 -499
-363 -534 -108 -17 -217 14 -296 85 l-38 34 -142 -60 c-79 -33 -148 -58 -155
-56 -6 3 -18 16 -25 31 -14 25 -12 32 27 105 l42 79 -2 548 -3 548 -52 30
c-73 43 -90 62 -77 84 9 13 50 23 185 43 96 14 189 27 207 28 l32 1 0 -315z
m-1695 -209 c61 -29 97 -66 127 -131 22 -48 23 -62 26 -340 4 -335 -2 -315
110 -367 65 -30 73 -43 45 -76 -37 -42 -250 -84 -279 -54 -8 7 -14 17 -14 22
0 11 -99 120 -109 120 -4 0 -28 -20 -54 -45 -90 -86 -208 -123 -328 -104 -157
25 -237 130 -227 294 6 88 34 145 96 192 70 53 126 66 312 70 l165 3 -3 83
c-3 89 -22 168 -48 206 -22 31 -73 51 -133 51 -56 0 -52 5 -71 -105 -14 -77
-26 -96 -75 -119 -26 -13 -40 -14 -61 -5 -47 17 -114 79 -137 125 -20 43 -20
44 -1 65 25 28 141 83 222 104 94 24 165 32 282 34 91 1 112 -2 155 -23z
m1131 5 c54 -25 114 -85 114 -115 0 -56 -122 -187 -173 -186 -12 1 -38 9 -57
18 -31 15 -37 24 -49 75 -7 31 -17 57 -21 57 -16 0 -130 -80 -130 -92 -1 -11
-1 -509 0 -563 0 -18 16 -24 126 -50 72 -16 128 -34 131 -42 3 -7 2 -24 -1
-38 l-6 -25 -346 0 -346 0 7 38 c4 20 8 39 10 41 2 2 32 18 67 36 l63 32 3
315 2 316 -67 39 c-54 31 -69 44 -71 66 -3 21 2 27 20 32 60 13 314 52 320 49
3 -2 19 -41 34 -86 l27 -82 26 31 c14 17 39 47 55 68 58 75 176 105 262 66z
m2008 -16 c72 -34 134 -94 167 -160 20 -42 24 -64 24 -145 0 -107 -15 -157
-52 -171 -13 -5 -144 -9 -289 -9 l-266 0 7 -32 c26 -119 97 -223 180 -263 50
-25 63 -27 121 -21 35 4 106 15 157 26 91 18 106 16 107 -14 0 -21 -91 -91
-165 -127 -194 -94 -431 -58 -562 84 -136 147 -163 399 -65 596 38 77 129 171
203 211 94 50 140 60 264 57 98 -3 117 -6 169 -32z m1092 -2 c56 -36 89 -84
80 -117 -9 -36 -62 -103 -109 -137 -32 -24 -49 -30 -74 -26 -51 9 -82 35 -89
75 -13 83 -11 82 -107 24 l-57 -35 2 -296 3 -295 127 -31 c70 -16 130 -33 133
-37 4 -4 4 -20 0 -37 l-7 -31 -344 0 -344 0 1 23 c1 43 16 59 80 91 l64 31 3
317 2 317 -65 36 c-68 39 -89 62 -75 84 9 15 330 74 342 63 4 -4 20 -42 35
-85 l29 -77 49 62 c97 121 213 150 321 81z m-5293 -1378 c117 -24 227 -102
227 -159 0 -50 -95 -158 -176 -199 -39 -20 -85 -9 -132 30 -28 25 -34 40 -53
128 -12 55 -25 104 -29 109 -15 16 -128 -45 -174 -94 -54 -58 -70 -87 -96
-181 -25 -92 -27 -244 -4 -333 35 -135 112 -244 208 -294 43 -22 63 -26 131
-25 44 0 126 10 182 22 115 24 139 26 149 10 12 -19 -19 -59 -81 -106 -135
-102 -249 -138 -410 -130 -254 12 -431 142 -512 374 -24 71 -27 92 -27 223 0
133 2 151 27 224 89 253 324 414 607 415 52 0 126 -6 163 -14z m1149 -4 c217
-56 360 -201 404 -411 24 -113 15 -271 -21 -379 -71 -210 -240 -369 -441 -417
-82 -19 -236 -14 -326 10 -265 72 -411 273 -409 566 0 124 16 193 72 309 70
148 230 285 380 325 81 22 250 20 341 -3z m1632 5 c70 -21 125 -63 167 -128
l37 -58 47 36 c78 60 175 112 258 140 68 23 91 26 170 22 144 -7 218 -52 277
-168 49 -97 54 -139 59 -519 l6 -355 90 -35 c96 -39 106 -50 86 -104 l-11 -27
-319 0 c-176 0 -322 3 -324 8 -2 4 1 26 7 49 8 32 23 51 64 83 l54 42 -5 321
c-3 270 -7 331 -22 378 -23 76 -55 109 -103 109 -44 0 -219 -26 -271 -40 l-36
-9 3 -368 c1 -202 4 -377 7 -389 3 -14 28 -31 85 -56 85 -39 91 -48 70 -102
l-10 -26 -310 0 -310 0 0 24 c0 45 19 74 70 113 l50 37 0 296 c0 318 -9 394
-52 473 -20 37 -28 42 -62 45 -39 3 -211 -20 -278 -39 l-38 -10 0 -377 c0
-207 4 -382 8 -389 4 -6 42 -27 85 -47 74 -33 77 -36 77 -68 0 -19 -5 -39 -12
-46 -9 -9 -101 -12 -351 -12 l-340 0 7 47 c3 25 7 47 9 49 1 1 39 20 85 43
l82 41 -2 392 -3 392 -85 51 c-73 44 -85 54 -82 75 1 14 6 28 11 33 8 8 355
67 396 67 22 0 27 -9 50 -85 14 -46 31 -87 36 -91 5 -3 35 13 65 36 71 54 191
118 262 141 69 22 182 24 246 5z m2079 -1 c171 -45 286 -161 317 -323 19 -96
-2 -243 -39 -276 -13 -11 -84 -15 -359 -19 -189 -3 -345 -7 -347 -9 -10 -9 30
-129 63 -193 43 -82 106 -149 165 -175 60 -28 171 -26 324 5 68 14 129 23 134
20 5 -4 9 -17 9 -30 0 -53 -183 -169 -326 -205 -199 -51 -424 6 -555 140 -118
121 -164 258 -157 465 8 195 63 324 195 452 70 68 175 127 265 149 74 17 241
17 311 -1z"/>
<path d="M4150 6289 c-25 -4 -62 -13 -82 -19 l-38 -11 0 -288 c0 -219 3 -291
13 -298 46 -37 237 -60 285 -34 98 53 109 409 17 567 -51 87 -89 103 -195 83z"/>
<path d="M7322 6285 c-40 -7 -80 -16 -88 -19 -12 -4 -14 -52 -14 -294 0 -220
3 -292 13 -300 42 -35 239 -58 285 -33 55 30 87 159 79 319 -5 118 -33 211
-83 283 -43 62 -64 67 -192 44z"/>
<path d="M5275 5930 c-172 -46 -198 -79 -160 -207 23 -76 48 -103 97 -103 41
0 157 26 170 38 4 4 8 70 9 147 l1 140 -23 2 c-13 1 -55 -6 -94 -17z"/>
<path d="M8345 6333 c-32 -8 -43 -22 -65 -81 -23 -61 -43 -193 -31 -205 8 -8
352 31 363 41 13 13 -14 103 -46 149 -47 69 -152 114 -221 96z"/>
<path d="M5263 4887 c-47 -17 -60 -35 -80 -107 -26 -96 -24 -346 5 -452 39
-145 116 -254 210 -299 78 -38 199 -26 240 24 49 59 63 363 24 510 -33 121
-74 198 -138 256 -79 73 -178 98 -261 68z"/>
<path d="M9014 4900 c-45 -10 -54 -18 -74 -64 -40 -90 -66 -296 -37 -296 6 0
80 9 162 19 83 11 181 23 219 27 l68 7 -6 41 c-9 56 -46 134 -85 179 -56 64
-172 105 -247 87z"/>
</g>
</svg>
